<mxfile host="app.diagrams.net" modified="2023-12-03T16:57:35.923Z" agent="Mozilla/5.0 (Macintosh; Intel Mac OS X 10_15_7) AppleWebKit/537.36 (KHTML, like Gecko) Chrome/119.0.0.0 Safari/537.36" etag="JzBibwFE9TmuYTVxGjdF" version="22.1.5" type="device">
  <diagram name="Page-1" id="6133507b-19e7-1e82-6fc7-422aa6c4b21f">
    <mxGraphModel dx="1010" dy="640" grid="1" gridSize="10" guides="1" tooltips="1" connect="1" arrows="1" fold="1" page="1" pageScale="1" pageWidth="1100" pageHeight="850" background="none" math="0" shadow="0">
      <root>
        <mxCell id="0" />
        <mxCell id="1" parent="0" />
        <mxCell id="78961159f06e98e8-17" value="API Gateway" style="swimlane;html=1;fontStyle=1;align=center;verticalAlign=top;childLayout=stackLayout;horizontal=1;startSize=26;horizontalStack=0;resizeParent=1;resizeLast=0;collapsible=1;marginBottom=0;swimlaneFillColor=#ffffff;rounded=0;shadow=0;comic=0;labelBackgroundColor=none;strokeWidth=1;fillColor=none;fontFamily=Verdana;fontSize=12" parent="1" vertex="1">
          <mxGeometry x="35" y="132" width="160" height="118" as="geometry" />
        </mxCell>
        <mxCell id="QQQKtL_zOe0Eue8qY0Bu-3" value="User" style="swimlane;html=1;fontStyle=1;align=center;verticalAlign=top;childLayout=stackLayout;horizontal=1;startSize=26;horizontalStack=0;resizeParent=1;resizeLast=0;collapsible=1;marginBottom=0;swimlaneFillColor=#ffffff;rounded=0;shadow=0;comic=0;labelBackgroundColor=none;strokeWidth=1;fillColor=none;fontFamily=Verdana;fontSize=12" parent="1" vertex="1">
          <mxGeometry x="410" y="39.99999999999997" width="160" height="164" as="geometry" />
        </mxCell>
        <mxCell id="QQQKtL_zOe0Eue8qY0Bu-4" value="get user id" style="text;html=1;strokeColor=none;fillColor=none;align=left;verticalAlign=top;spacingLeft=4;spacingRight=4;whiteSpace=wrap;overflow=hidden;rotatable=0;points=[[0,0.5],[1,0.5]];portConstraint=eastwest;" parent="QQQKtL_zOe0Eue8qY0Bu-3" vertex="1">
          <mxGeometry y="26" width="160" height="26" as="geometry" />
        </mxCell>
        <mxCell id="QQQKtL_zOe0Eue8qY0Bu-5" value="subscribe" style="text;html=1;strokeColor=none;fillColor=none;align=left;verticalAlign=top;spacingLeft=4;spacingRight=4;whiteSpace=wrap;overflow=hidden;rotatable=0;points=[[0,0.5],[1,0.5]];portConstraint=eastwest;" parent="QQQKtL_zOe0Eue8qY0Bu-3" vertex="1">
          <mxGeometry y="52" width="160" height="26" as="geometry" />
        </mxCell>
        <mxCell id="QQQKtL_zOe0Eue8qY0Bu-10" value="register" style="text;html=1;strokeColor=none;fillColor=none;align=left;verticalAlign=top;spacingLeft=4;spacingRight=4;whiteSpace=wrap;overflow=hidden;rotatable=0;points=[[0,0.5],[1,0.5]];portConstraint=eastwest;" parent="QQQKtL_zOe0Eue8qY0Bu-3" vertex="1">
          <mxGeometry y="78" width="160" height="26" as="geometry" />
        </mxCell>
        <mxCell id="QQQKtL_zOe0Eue8qY0Bu-11" value="auth" style="text;html=1;strokeColor=none;fillColor=none;align=left;verticalAlign=top;spacingLeft=4;spacingRight=4;whiteSpace=wrap;overflow=hidden;rotatable=0;points=[[0,0.5],[1,0.5]];portConstraint=eastwest;" parent="QQQKtL_zOe0Eue8qY0Bu-3" vertex="1">
          <mxGeometry y="104" width="160" height="26" as="geometry" />
        </mxCell>
        <mxCell id="QQQKtL_zOe0Eue8qY0Bu-26" value="changePassword" style="text;html=1;strokeColor=none;fillColor=none;align=left;verticalAlign=top;spacingLeft=4;spacingRight=4;whiteSpace=wrap;overflow=hidden;rotatable=0;points=[[0,0.5],[1,0.5]];portConstraint=eastwest;" parent="QQQKtL_zOe0Eue8qY0Bu-3" vertex="1">
          <mxGeometry y="130" width="160" height="26" as="geometry" />
        </mxCell>
        <mxCell id="QQQKtL_zOe0Eue8qY0Bu-12" style="edgeStyle=orthogonalEdgeStyle;rounded=0;html=1;labelBackgroundColor=none;startArrow=none;startFill=0;startSize=8;endArrow=open;endFill=0;endSize=16;fontFamily=Verdana;fontSize=12;exitX=1;exitY=0.25;exitDx=0;exitDy=0;entryX=-0.006;entryY=0.962;entryDx=0;entryDy=0;entryPerimeter=0;" parent="1" source="78961159f06e98e8-17" target="QQQKtL_zOe0Eue8qY0Bu-4" edge="1">
          <mxGeometry relative="1" as="geometry">
            <Array as="points">
              <mxPoint x="240" y="162" />
              <mxPoint x="240" y="90" />
            </Array>
            <mxPoint x="240" y="190" as="sourcePoint" />
            <mxPoint x="365" y="90" as="targetPoint" />
          </mxGeometry>
        </mxCell>
        <mxCell id="QQQKtL_zOe0Eue8qY0Bu-13" value="Post" style="swimlane;html=1;fontStyle=1;align=center;verticalAlign=top;childLayout=stackLayout;horizontal=1;startSize=26;horizontalStack=0;resizeParent=1;resizeLast=0;collapsible=1;marginBottom=0;swimlaneFillColor=#ffffff;rounded=0;shadow=0;comic=0;labelBackgroundColor=none;strokeWidth=1;fillColor=none;fontFamily=Verdana;fontSize=12" parent="1" vertex="1">
          <mxGeometry x="410" y="239.99999999999997" width="160" height="208" as="geometry" />
        </mxCell>
        <mxCell id="QQQKtL_zOe0Eue8qY0Bu-14" value="create/read/update/delete" style="text;html=1;strokeColor=none;fillColor=none;align=left;verticalAlign=top;spacingLeft=4;spacingRight=4;whiteSpace=wrap;overflow=hidden;rotatable=0;points=[[0,0.5],[1,0.5]];portConstraint=eastwest;" parent="QQQKtL_zOe0Eue8qY0Bu-13" vertex="1">
          <mxGeometry y="26" width="160" height="26" as="geometry" />
        </mxCell>
        <mxCell id="QQQKtL_zOe0Eue8qY0Bu-15" value="view all posts" style="text;html=1;strokeColor=none;fillColor=none;align=left;verticalAlign=top;spacingLeft=4;spacingRight=4;whiteSpace=wrap;overflow=hidden;rotatable=0;points=[[0,0.5],[1,0.5]];portConstraint=eastwest;" parent="QQQKtL_zOe0Eue8qY0Bu-13" vertex="1">
          <mxGeometry y="52" width="160" height="26" as="geometry" />
        </mxCell>
        <mxCell id="QQQKtL_zOe0Eue8qY0Bu-16" value="get post id" style="text;html=1;strokeColor=none;fillColor=none;align=left;verticalAlign=top;spacingLeft=4;spacingRight=4;whiteSpace=wrap;overflow=hidden;rotatable=0;points=[[0,0.5],[1,0.5]];portConstraint=eastwest;" parent="QQQKtL_zOe0Eue8qY0Bu-13" vertex="1">
          <mxGeometry y="78" width="160" height="26" as="geometry" />
        </mxCell>
        <mxCell id="QQQKtL_zOe0Eue8qY0Bu-17" value="like" style="text;html=1;strokeColor=none;fillColor=none;align=left;verticalAlign=top;spacingLeft=4;spacingRight=4;whiteSpace=wrap;overflow=hidden;rotatable=0;points=[[0,0.5],[1,0.5]];portConstraint=eastwest;" parent="QQQKtL_zOe0Eue8qY0Bu-13" vertex="1">
          <mxGeometry y="104" width="160" height="26" as="geometry" />
        </mxCell>
        <mxCell id="QQQKtL_zOe0Eue8qY0Bu-18" value="comments" style="text;html=1;strokeColor=none;fillColor=none;align=left;verticalAlign=top;spacingLeft=4;spacingRight=4;whiteSpace=wrap;overflow=hidden;rotatable=0;points=[[0,0.5],[1,0.5]];portConstraint=eastwest;" parent="QQQKtL_zOe0Eue8qY0Bu-13" vertex="1">
          <mxGeometry y="130" width="160" height="26" as="geometry" />
        </mxCell>
        <mxCell id="QQQKtL_zOe0Eue8qY0Bu-19" value="search" style="text;html=1;strokeColor=none;fillColor=none;align=left;verticalAlign=top;spacingLeft=4;spacingRight=4;whiteSpace=wrap;overflow=hidden;rotatable=0;points=[[0,0.5],[1,0.5]];portConstraint=eastwest;" parent="QQQKtL_zOe0Eue8qY0Bu-13" vertex="1">
          <mxGeometry y="156" width="160" height="26" as="geometry" />
        </mxCell>
        <mxCell id="QQQKtL_zOe0Eue8qY0Bu-20" value="tags" style="text;html=1;strokeColor=none;fillColor=none;align=left;verticalAlign=top;spacingLeft=4;spacingRight=4;whiteSpace=wrap;overflow=hidden;rotatable=0;points=[[0,0.5],[1,0.5]];portConstraint=eastwest;" parent="QQQKtL_zOe0Eue8qY0Bu-13" vertex="1">
          <mxGeometry y="182" width="160" height="26" as="geometry" />
        </mxCell>
        <mxCell id="QQQKtL_zOe0Eue8qY0Bu-21" value="Notification" style="swimlane;html=1;fontStyle=1;align=center;verticalAlign=top;childLayout=stackLayout;horizontal=1;startSize=26;horizontalStack=0;resizeParent=1;resizeLast=0;collapsible=1;marginBottom=0;swimlaneFillColor=#ffffff;rounded=0;shadow=0;comic=0;labelBackgroundColor=none;strokeWidth=1;fillColor=none;fontFamily=Verdana;fontSize=12" parent="1" vertex="1">
          <mxGeometry x="410" y="490" width="160" height="164" as="geometry" />
        </mxCell>
        <mxCell id="QQQKtL_zOe0Eue8qY0Bu-22" value="notify to email" style="text;html=1;strokeColor=none;fillColor=none;align=left;verticalAlign=top;spacingLeft=4;spacingRight=4;whiteSpace=wrap;overflow=hidden;rotatable=0;points=[[0,0.5],[1,0.5]];portConstraint=eastwest;" parent="QQQKtL_zOe0Eue8qY0Bu-21" vertex="1">
          <mxGeometry y="26" width="160" height="26" as="geometry" />
        </mxCell>
        <mxCell id="QQQKtL_zOe0Eue8qY0Bu-27" style="edgeStyle=orthogonalEdgeStyle;rounded=0;html=1;labelBackgroundColor=none;startArrow=none;startFill=0;startSize=8;endArrow=open;endFill=0;endSize=16;fontFamily=Verdana;fontSize=12;entryX=0;entryY=0.5;entryDx=0;entryDy=0;exitX=1;exitY=0.5;exitDx=0;exitDy=0;" parent="1" source="78961159f06e98e8-17" target="QQQKtL_zOe0Eue8qY0Bu-16" edge="1">
          <mxGeometry relative="1" as="geometry">
            <Array as="points">
              <mxPoint x="195" y="192" />
              <mxPoint x="250" y="192" />
              <mxPoint x="250" y="330" />
            </Array>
            <mxPoint x="210" y="192" as="sourcePoint" />
            <mxPoint x="419" y="121" as="targetPoint" />
          </mxGeometry>
        </mxCell>
        <mxCell id="QQQKtL_zOe0Eue8qY0Bu-28" style="edgeStyle=orthogonalEdgeStyle;rounded=0;html=1;labelBackgroundColor=none;startArrow=none;startFill=0;startSize=8;endArrow=open;endFill=0;endSize=16;fontFamily=Verdana;fontSize=12;" parent="1" edge="1">
          <mxGeometry relative="1" as="geometry">
            <Array as="points">
              <mxPoint x="110" y="280" />
              <mxPoint x="140" y="280" />
              <mxPoint x="140" y="572" />
            </Array>
            <mxPoint x="110" y="250" as="sourcePoint" />
            <mxPoint x="410" y="572" as="targetPoint" />
          </mxGeometry>
        </mxCell>
        <mxCell id="QQQKtL_zOe0Eue8qY0Bu-32" value="" style="endArrow=none;html=1;rounded=0;endFill=0;endSize=0;exitX=0.5;exitY=1;exitDx=0;exitDy=0;entryX=0.5;entryY=0;entryDx=0;entryDy=0;startArrow=open;startFill=0;startSize=16;" parent="1" source="QQQKtL_zOe0Eue8qY0Bu-3" target="QQQKtL_zOe0Eue8qY0Bu-13" edge="1">
          <mxGeometry width="50" height="50" relative="1" as="geometry">
            <mxPoint x="600" y="240" as="sourcePoint" />
            <mxPoint x="650" y="190" as="targetPoint" />
          </mxGeometry>
        </mxCell>
        <mxCell id="QQQKtL_zOe0Eue8qY0Bu-33" value="File" style="swimlane;html=1;fontStyle=1;align=center;verticalAlign=top;childLayout=stackLayout;horizontal=1;startSize=26;horizontalStack=0;resizeParent=1;resizeLast=0;collapsible=1;marginBottom=0;swimlaneFillColor=#ffffff;rounded=0;shadow=0;comic=0;labelBackgroundColor=none;strokeWidth=1;fillColor=none;fontFamily=Verdana;fontSize=12" parent="1" vertex="1">
          <mxGeometry x="630" y="240" width="160" height="164" as="geometry" />
        </mxCell>
        <mxCell id="QQQKtL_zOe0Eue8qY0Bu-34" value="create/read/update/delete" style="text;html=1;strokeColor=none;fillColor=none;align=left;verticalAlign=top;spacingLeft=4;spacingRight=4;whiteSpace=wrap;overflow=hidden;rotatable=0;points=[[0,0.5],[1,0.5]];portConstraint=eastwest;" parent="QQQKtL_zOe0Eue8qY0Bu-33" vertex="1">
          <mxGeometry y="26" width="160" height="26" as="geometry" />
        </mxCell>
        <mxCell id="QQQKtL_zOe0Eue8qY0Bu-35" value="" style="endArrow=none;html=1;rounded=0;endFill=0;endSize=0;entryX=1;entryY=0.5;entryDx=0;entryDy=0;startArrow=open;startFill=0;startSize=16;" parent="1" target="QQQKtL_zOe0Eue8qY0Bu-16" edge="1">
          <mxGeometry width="50" height="50" relative="1" as="geometry">
            <mxPoint x="630" y="331" as="sourcePoint" />
            <mxPoint x="590" y="326" as="targetPoint" />
          </mxGeometry>
        </mxCell>
        <mxCell id="QQQKtL_zOe0Eue8qY0Bu-36" value="" style="endArrow=none;html=1;rounded=0;endFill=0;endSize=0;startArrow=open;startFill=0;startSize=16;exitX=1.006;exitY=0;exitDx=0;exitDy=0;exitPerimeter=0;" parent="1" source="QQQKtL_zOe0Eue8qY0Bu-18" edge="1">
          <mxGeometry width="50" height="50" relative="1" as="geometry">
            <mxPoint x="590" y="370" as="sourcePoint" />
            <mxPoint x="630" y="370" as="targetPoint" />
          </mxGeometry>
        </mxCell>
        <mxCell id="pxwa93VTdi4y9ztPvIiS-4" style="edgeStyle=orthogonalEdgeStyle;rounded=0;html=1;labelBackgroundColor=none;startArrow=none;startFill=0;startSize=8;endArrow=open;endFill=0;endSize=16;fontFamily=Verdana;fontSize=12;exitX=0.75;exitY=1;exitDx=0;exitDy=0;entryX=0.5;entryY=1;entryDx=0;entryDy=0;" edge="1" parent="1" source="78961159f06e98e8-17" target="QQQKtL_zOe0Eue8qY0Bu-33">
          <mxGeometry relative="1" as="geometry">
            <Array as="points">
              <mxPoint x="155" y="470" />
              <mxPoint x="710" y="470" />
            </Array>
            <mxPoint x="205" y="250" as="sourcePoint" />
            <mxPoint x="420" y="582" as="targetPoint" />
          </mxGeometry>
        </mxCell>
      </root>
    </mxGraphModel>
  </diagram>
</mxfile>
